<svg width="32" height="32" viewBox="0 0 32 32" fill="none" xmlns="http://www.w3.org/2000/svg">
<g clip-path="url(#clip0_224_3894)">
<circle cx="16" cy="16" r="16" fill="#FEEDC8"/>
<path d="M14.064 10.24L12.4 12.448C10.7147 11.4773 8.992 10.992 7.232 10.992C5.45067 10.992 3.97333 11.376 2.8 12.144L2.08 11.248C3.95733 9.744 6.12267 8.992 8.576 8.992C10.6347 8.992 12.464 9.408 14.064 10.24ZM8.992 21.088L6.256 22.752C5.06133 21.6107 4.464 20.2133 4.464 18.56C4.464 17.44 4.736 16.224 5.28 14.912C5.792 13.7067 6.43733 12.624 7.216 11.664L8.464 11.84C7.41867 13.0027 6.896 14.3147 6.896 15.776C6.896 16.672 7.09333 17.616 7.488 18.608C7.88267 19.5573 8.384 20.384 8.992 21.088ZM28.6736 15.568C28.6736 18.5227 27.7136 21.0613 25.7936 23.184L24.8976 22.576C25.4203 21.7333 25.831 20.7627 26.1296 19.664C26.4176 18.5973 26.5616 17.552 26.5616 16.528C26.5616 14.0533 25.6923 11.8987 23.9536 10.064L26.9296 8.448C27.4843 9.46133 27.9163 10.6133 28.2256 11.904C28.5243 13.152 28.6736 14.3733 28.6736 15.568ZM24.9616 21.392L24.3696 22.464C23.3883 21.856 22.503 21.1413 21.7136 20.32C20.7963 19.3707 20.1723 18.4373 19.8416 17.52C20.151 17.0933 20.7056 15.7173 21.5056 13.392C21.815 14.8853 22.2256 16.3147 22.7376 17.68C23.431 19.472 24.1723 20.7093 24.9616 21.392ZM20.1296 19.536C19.7563 20.304 19.159 21.0187 18.3376 21.68C17.6016 22.2773 16.791 22.7573 15.9056 23.12C14.647 21.4987 14.0176 19.536 14.0176 17.232C14.0176 15.8347 14.2416 14.352 14.6896 12.784C15.127 11.2587 15.7083 9.872 16.4336 8.624L17.3936 9.168C16.551 10.7573 16.1296 12.384 16.1296 14.048C16.1296 15.0187 16.2736 16 16.5616 16.992C16.8816 18.048 17.319 18.9387 17.8736 19.664C18.727 19.2267 19.2816 18.768 19.5376 18.288L20.1296 19.536Z" fill="#12532C"/>
</g>
<defs>
<clipPath id="clip0_224_3894">
<rect width="32" height="32" fill="white"/>
</clipPath>
</defs>
</svg>
